<?xml version="1.0" standalone="no"?>
<!DOCTYPE svg PUBLIC "-//W3C//DTD SVG 20010904//EN"
 "http://www.w3.org/TR/2001/REC-SVG-20010904/DTD/svg10.dtd">
<svg version="1.0" xmlns="http://www.w3.org/2000/svg"
 width="512.000000pt" height="512.000000pt" viewBox="0 0 512.000000 512.000000"
 preserveAspectRatio="xMidYMid meet">

<g transform="translate(0.000000,512.000000) scale(0.100000,-0.100000)"
fill="#000000" stroke="none">
<path d="M2457 4949 c7 -7 15 -10 18 -7 3 3 -2 9 -12 12 -14 6 -15 5 -6 -5z"/>
<path d="M2613 4949 c16 -9 18 -19 13 -58 l-5 -46 15 45 c7 25 22 51 31 58 9
6 12 12 7 12 -6 0 -15 -5 -22 -12 -9 -9 -15 -9 -24 0 -7 7 -17 12 -22 12 -6 0
-3 -5 7 -11z"/>
<path d="M2256 4942 c-2 -4 9 -7 25 -8 16 -1 29 2 29 5 0 9 -48 12 -54 3z"/>
<path d="M2490 4943 c0 -5 4 -14 9 -21 6 -10 10 -9 14 7 3 14 0 21 -9 21 -8 0
-14 -3 -14 -7z"/>
<path d="M2968 4875 c-32 -52 -46 -91 -28 -80 12 8 65 114 59 119 -2 2 -16
-15 -31 -39z"/>
<path d="M2750 4880 c0 -5 5 -10 10 -10 6 0 10 5 10 10 0 6 -4 10 -10 10 -5 0
-10 -4 -10 -10z"/>
<path d="M2491 4864 c0 -11 3 -14 6 -6 3 7 2 16 -1 19 -3 4 -6 -2 -5 -13z"/>
<path d="M2750 4852 c0 -6 9 -8 21 -5 12 4 25 0 31 -8 8 -12 9 -11 5 1 -4 17
-57 27 -57 12z"/>
<path d="M2250 4840 c0 -13 11 -13 30 0 12 8 11 10 -7 10 -13 0 -23 -4 -23
-10z"/>
<path d="M2700 4846 c0 -2 7 -6 15 -10 8 -3 15 -1 15 4 0 6 -7 10 -15 10 -8 0
-15 -2 -15 -4z"/>
<path d="M2206 4832 c-4 -7 -1 -12 8 -12 13 0 16 -13 16 -66 0 -38 4 -63 9
-59 5 3 12 -7 14 -22 2 -16 5 4 5 42 2 60 -2 74 -21 99 -16 20 -26 25 -31 18z
m41 -89 c-3 -10 -5 -2 -5 17 0 19 2 27 5 18 2 -10 2 -26 0 -35z"/>
<path d="M2482 4820 c0 -14 2 -19 5 -12 2 6 2 18 0 25 -3 6 -5 1 -5 -13z"/>
<path d="M1800 4800 c0 -5 5 -10 11 -10 5 0 7 5 4 10 -3 6 -8 10 -11 10 -2 0
-4 -4 -4 -10z"/>
<path d="M2090 4800 c0 -5 5 -10 11 -10 5 0 7 5 4 10 -3 6 -8 10 -11 10 -2 0
-4 -4 -4 -10z"/>
<path d="M3032 4790 c0 -14 2 -19 5 -12 2 6 2 18 0 25 -3 6 -5 1 -5 -13z"/>
<path d="M2060 4785 c-6 -8 -10 -19 -8 -24 1 -6 8 1 15 14 13 28 11 31 -7 10z"/>
<path d="M2824 4774 c-4 -17 -9 -22 -14 -14 -5 9 -9 9 -14 1 -4 -6 -1 -11 6
-11 23 -1 -42 -50 -66 -50 -26 0 -46 -18 -45 -39 0 -10 4 -7 9 7 7 15 18 22
36 22 30 0 104 67 104 94 0 24 -9 19 -16 -10z"/>
<path d="M2948 4782 c-16 -9 -28 -20 -28 -25 0 -4 14 2 30 15 26 19 36 29 28
28 -2 0 -15 -8 -30 -18z"/>
<path d="M2452 4770 c0 -14 2 -19 5 -12 2 6 2 18 0 25 -3 6 -5 1 -5 -13z"/>
<path d="M2603 4775 c-3 -9 -3 -18 -1 -21 3 -3 8 4 11 16 6 23 -1 27 -10 5z"/>
<path d="M2705 4779 c-4 -5 -4 -13 -1 -16 3 -4 6 0 7 8 0 8 4 6 9 -6 7 -16 9
-17 9 -3 1 21 -15 32 -24 17z"/>
<path d="M1782 4773 c9 -2 19 -15 22 -29 4 -13 10 -24 15 -24 5 0 4 14 -2 30
-8 21 -18 30 -32 29 -15 -1 -16 -2 -3 -6z"/>
<path d="M2117 4759 c4 -13 8 -18 11 -10 2 7 -1 18 -6 23 -8 8 -9 4 -5 -13z"/>
<path d="M2140 4761 c0 -5 5 -13 10 -16 6 -3 10 -2 10 4 0 5 -4 13 -10 16 -5
3 -10 2 -10 -4z"/>
<path d="M3141 4761 c-8 -5 -21 -6 -30 -3 -14 5 -14 3 1 -11 9 -10 15 -26 13
-37 -4 -19 -2 -19 20 -4 14 9 33 13 44 9 10 -3 22 -1 25 4 10 16 -10 22 -38
11 -18 -6 -26 -6 -26 1 0 6 -4 7 -10 4 -17 -11 -11 7 8 21 19 15 14 18 -7 5z"/>
<path d="M3326 4738 c3 -4 12 -8 20 -8 8 0 14 4 14 8 0 4 -9 8 -19 8 -11 0
-17 -4 -15 -8z"/>
<path d="M2580 4726 c-24 -22 -63 -26 -95 -11 l-30 15 24 -20 c31 -27 64 -25
98 5 15 13 26 25 23 25 -3 0 -12 -6 -20 -14z"/>
<path d="M2696 4724 c-11 -7 -16 -17 -13 -21 4 -4 15 1 24 10 22 21 14 30 -11
11z"/>
<path d="M3005 4714 c-11 -13 -35 -31 -54 -39 -32 -15 -36 -14 -58 7 -12 12
-23 17 -23 10 0 -16 29 -42 47 -42 23 0 88 39 102 62 18 29 9 31 -14 2z"/>
<path d="M2030 4720 c0 -5 7 -10 15 -10 8 0 15 5 15 10 0 6 -7 10 -15 10 -8 0
-15 -4 -15 -10z"/>
<path d="M2132 4710 c0 -14 2 -19 5 -12 2 6 2 18 0 25 -3 6 -5 1 -5 -13z"/>
<path d="M2151 4703 c0 -13 -5 -23 -10 -23 -9 0 -23 -41 -16 -48 8 -8 36 60
32 76 -3 12 -5 10 -6 -5z"/>
<path d="M3087 4678 c-11 -15 -16 -32 -12 -38 3 -5 -1 -10 -9 -10 -9 0 -16 -4
-16 -10 0 -5 6 -10 14 -10 19 0 48 47 44 73 -3 21 -4 21 -21 -5z"/>
<path d="M3295 4673 c-9 -15 -30 -40 -46 -55 -17 -14 -26 -29 -21 -32 11 -6
98 101 90 110 -3 2 -13 -8 -23 -23z"/>
<path d="M1790 4679 c-12 -9 -12 -10 4 -5 10 4 25 1 34 -6 13 -11 14 -10 10 2
-6 19 -29 23 -48 9z"/>
<path d="M1575 4661 c-2 -5 7 -8 20 -8 14 0 25 2 25 6 0 10 -39 11 -45 2z"/>
<path d="M2042 4650 c8 -24 42 -40 58 -29 13 9 12 10 -3 5 -10 -3 -26 3 -38
15 -12 12 -20 16 -17 9z"/>
<path d="M1841 4634 c0 -11 3 -14 6 -6 3 7 2 16 -1 19 -3 4 -6 -2 -5 -13z"/>
<path d="M2234 4601 c-7 -18 -20 -31 -35 -34 -23 -4 -23 -4 -2 -6 23 -1 58 39
51 59 -2 6 -8 -2 -14 -19z"/>
<path d="M3401 4606 c-19 -20 -20 -24 -6 -30 10 -3 14 -2 10 5 -4 6 1 19 11
30 25 28 12 24 -15 -5z"/>
<path d="M1620 4615 c0 -14 84 -185 91 -185 11 0 32 40 25 47 -3 3 -9 -5 -14
-18 -9 -23 -9 -22 -26 13 -10 21 -15 42 -11 47 3 6 2 11 -4 11 -6 0 -13 11
-17 25 -3 14 -11 25 -16 25 -6 0 -8 9 -5 20 3 13 0 20 -9 20 -8 0 -14 -2 -14
-5z"/>
<path d="M2660 4609 c-22 -6 -20 -7 13 -8 38 -1 47 3 25 11 -7 3 -24 1 -38 -3z"/>
<path d="M1847 4594 c-4 -4 -7 -17 -7 -28 1 -19 1 -20 11 -3 11 19 8 43 -4 31z"/>
<path d="M3458 4583 l33 -4 -41 -49 c-22 -26 -40 -52 -40 -56 1 -10 100 95
100 105 0 4 -19 7 -42 8 -34 0 -36 -1 -10 -4z"/>
<path d="M1761 4555 c-1 -30 33 -69 53 -62 14 6 15 9 4 21 -7 7 -18 12 -24 9
-7 -2 -17 8 -22 24 -8 21 -11 23 -11 8z"/>
<path d="M1874 4551 c1 -21 23 -24 30 -5 5 14 4 15 -8 5 -11 -9 -15 -9 -19 1
-3 9 -4 9 -3 -1z"/>
<path d="M3190 4558 c0 -10 41 -10 57 0 8 5 -1 8 -22 8 -19 0 -35 -4 -35 -8z"/>
<path d="M3337 4545 c-10 -14 -25 -25 -34 -25 -13 0 -14 -3 -5 -12 8 -8 21 -2
52 25 28 26 35 37 23 37 -10 0 -26 -12 -36 -25z"/>
<path d="M1560 4496 c0 -14 -4 -27 -9 -30 -11 -7 -33 18 -24 27 3 4 1 7 -5 7
-7 0 -12 -6 -12 -14 0 -8 -2 -20 -3 -28 -2 -7 -2 -10 0 -5 10 16 23 4 54 -50
39 -69 38 -68 45 -60 3 3 -6 23 -20 44 -22 32 -25 45 -20 85 4 27 4 48 0 48
-3 0 -6 -11 -6 -24z"/>
<path d="M3570 4491 c-8 -6 -18 -7 -22 -5 -4 3 -8 -1 -8 -9 0 -8 -7 -20 -15
-27 -13 -11 -15 -10 -9 6 5 18 5 18 -6 1 -9 -15 -9 -22 0 -30 10 -9 14 -9 18
2 9 25 50 61 70 61 27 0 36 -39 15 -62 -9 -10 -31 -18 -52 -19 -32 -1 -33 -2
-11 -8 29 -9 76 5 84 24 3 8 13 11 27 8 15 -4 20 -3 15 5 -4 7 -14 12 -22 12
-8 0 -19 11 -24 25 -10 26 -34 32 -60 16z"/>
<path d="M3388 4453 c12 -2 30 -2 40 0 9 3 -1 5 -23 4 -22 0 -30 -2 -17 -4z"/>
<path d="M3770 4408 c0 -12 38 -10 45 2 4 6 -5 9 -19 8 -15 -1 -26 -6 -26 -10z"/>
<path d="M3470 4400 c0 -5 5 -10 10 -10 6 0 10 5 10 10 0 6 -4 10 -10 10 -5 0
-10 -4 -10 -10z"/>
<path d="M1403 4393 c-7 -2 -13 -10 -13 -16 0 -8 3 -8 12 1 19 19 66 -17 94
-73 15 -27 23 -39 19 -25 -4 14 -9 37 -12 53 -3 15 -10 27 -15 27 -5 0 -21 9
-35 20 -27 21 -30 22 -50 13z"/>
<path d="M3406 4369 c-12 -12 -15 -19 -7 -19 16 0 44 27 34 33 -5 2 -17 -4
-27 -14z"/>
<path d="M3695 4380 c3 -5 11 -10 16 -10 6 0 7 5 4 10 -3 6 -11 10 -16 10 -6
0 -7 -4 -4 -10z"/>
<path d="M3477 4365 c3 -9 8 -13 11 -11 3 3 12 0 20 -7 13 -10 15 -9 9 6 -4
10 -7 21 -7 23 0 2 -9 4 -20 4 -13 0 -18 -5 -13 -15z"/>
<path d="M1247 4364 c-3 -3 -3 -12 0 -20 3 -8 -1 -14 -11 -14 -9 0 -16 -4 -16
-9 0 -5 9 -7 20 -4 13 3 20 14 20 29 0 25 -2 28 -13 18z"/>
<path d="M3707 4351 c-20 -9 -34 -20 -31 -24 4 -4 -7 -10 -25 -13 -22 -5 -29
-10 -22 -17 6 -6 28 3 65 27 31 20 56 39 56 42 0 6 0 6 -43 -15z"/>
<path d="M3392 4328 c2 -6 15 -18 28 -27 l24 -16 -19 27 c-20 28 -40 38 -33
16z"/>
<path d="M3490 4326 c0 -9 5 -16 12 -16 20 0 -5 -18 -32 -23 -21 -4 -19 -5 8
-6 38 -1 52 20 28 44 -14 15 -16 15 -16 1z"/>
<path d="M1394 4307 c-9 -25 22 -68 43 -60 11 4 13 8 5 11 -7 2 -9 9 -5 15 4
7 -1 5 -12 -3 -16 -14 -17 -13 -12 5 4 11 2 27 -3 35 -8 12 -10 12 -16 -3z"/>
<path d="M1300 4251 c22 -33 40 -63 40 -66 0 -4 7 -13 15 -21 8 -9 15 -13 15
-9 0 9 -100 155 -106 155 -2 0 13 -27 36 -59z"/>
<path d="M3590 4280 c0 -4 7 -11 16 -14 19 -7 59 -8 52 -1 -10 11 -68 23 -68
15z"/>
<path d="M3799 4276 c10 -11 8 -16 -8 -21 -12 -3 -21 -11 -21 -17 0 -6 -9 -8
-19 -5 -12 3 -27 -3 -36 -13 -10 -11 -25 -16 -38 -13 -19 4 -20 3 -5 -7 13 -8
25 -7 49 5 21 11 49 16 85 13 30 -1 54 0 54 5 0 4 -17 7 -37 7 l-38 1 28 22
c29 24 27 37 -6 37 -16 0 -17 -3 -8 -14z"/>
<path d="M1187 4220 c11 -19 25 -34 32 -32 6 1 44 -15 84 -35 92 -48 87 -46
87 -36 0 4 -27 21 -60 38 -33 16 -60 34 -60 41 0 6 -10 9 -24 7 -16 -4 -32 4
-51 24 l-28 28 20 -35z"/>
<path d="M1467 4243 c-15 -2 -25 -9 -22 -14 9 -14 41 -11 55 6 7 8 9 14 4 14
-5 -1 -21 -4 -37 -6z"/>
<path d="M3865 4190 c-4 -6 -11 -8 -16 -5 -5 4 -9 1 -9 -4 0 -6 -6 -11 -14
-11 -8 0 -24 -9 -37 -20 -20 -17 -21 -19 -4 -12 32 12 105 52 105 57 0 9 -19
5 -25 -5z"/>
<path d="M1231 4150 c14 -31 19 -36 19 -24 0 6 -7 19 -16 30 -14 18 -14 18 -3
-6z"/>
<path d="M1103 4140 c-27 -11 -31 -30 -5 -23 11 2 59 -19 115 -51 103 -60 107
-62 107 -45 0 5 -4 7 -10 4 -5 -3 -10 -2 -10 3 0 5 -15 16 -32 23 -18 7 -39
21 -46 31 -7 10 -24 18 -38 18 -13 0 -24 4 -24 9 0 5 -9 11 -21 14 -12 3 -18
10 -14 16 7 13 7 13 -22 1z"/>
<path d="M3725 4130 c-4 -7 54 -34 61 -27 1 1 -10 10 -26 19 -16 9 -32 13 -35
8z"/>
<path d="M3905 4093 c-11 -3 -28 -12 -37 -21 -10 -8 -18 -11 -19 -6 0 5 -4 0
-8 -11 -11 -27 49 -59 93 -51 17 4 42 7 56 7 14 0 19 3 13 6 -7 2 -13 13 -13
24 0 22 -34 60 -52 58 -7 -1 -22 -4 -33 -6z m51 -11 c6 -4 14 -17 18 -29 6
-19 2 -25 -19 -33 -27 -10 -71 -4 -92 13 -19 14 23 45 77 56 3 0 10 -3 16 -7z"/>
<path d="M3729 4018 l-12 -23 24 20 c13 11 26 21 28 22 2 2 -3 3 -12 3 -9 0
-22 -10 -28 -22z"/>
<path d="M3794 4032 c-9 -5 -8 -10 1 -19 11 -10 13 -9 12 7 -1 11 -1 20 -2 20
0 0 -5 -4 -11 -8z"/>
<path d="M3822 3985 c-4 -61 -39 -71 -83 -24 -16 17 -29 27 -29 21 0 -16 59
-62 80 -62 27 0 42 25 37 62 l-4 33 -1 -30z"/>
<path d="M1855 3916 c-5 -2 -37 -10 -70 -17 -217 -47 -427 -209 -529 -407 -10
-19 -16 -36 -13 -38 2 -2 15 17 28 43 13 26 44 73 68 103 120 150 266 243 453
289 243 59 482 -8 672 -188 38 -36 63 -56 54 -44 -29 44 -159 150 -221 180
-118 59 -182 75 -312 79 -66 2 -124 2 -130 0z"/>
<path d="M1818 3747 c-31 -12 -63 -28 -70 -36 -7 -7 7 -3 31 9 54 27 145 37
194 21 20 -7 50 -29 67 -49 34 -42 41 -35 9 10 -43 60 -141 79 -231 45z"/>
<path d="M1861 3614 c-12 -15 -21 -32 -21 -38 1 -6 8 2 16 17 8 15 25 32 37
37 16 6 18 9 5 9 -9 1 -26 -11 -37 -25z"/>
<path d="M1930 3636 c0 -2 9 -6 20 -9 11 -3 18 -1 14 4 -5 9 -34 13 -34 5z"/>
<path d="M2540 3610 c6 -11 13 -20 16 -20 2 0 0 9 -6 20 -6 11 -13 20 -16 20
-2 0 0 -9 6 -20z"/>
<path d="M2082 3580 c0 -14 2 -19 5 -12 2 6 2 18 0 25 -3 6 -5 1 -5 -13z"/>
<path d="M1800 3507 c0 -5 5 -18 11 -30 57 -111 200 -129 291 -37 21 21 38 44
38 51 0 8 -12 -3 -26 -23 -32 -45 -118 -84 -165 -74 -57 11 -99 38 -124 80
-14 22 -25 37 -25 33z"/>
<path d="M2610 3414 c1 -16 24 -39 61 -62 36 -22 89 -87 89 -109 0 -7 5 -15
11 -18 5 -4 3 10 -6 32 -17 41 -81 113 -101 113 -7 0 -22 12 -33 26 -12 15
-21 23 -21 18z"/>
<path d="M2320 3229 c0 -13 18 -20 25 -9 4 6 21 -5 39 -25 27 -28 41 -35 71
-35 45 0 89 25 105 58 10 23 8 22 -18 -6 -49 -53 -110 -55 -156 -5 -23 25 -66
39 -66 22z"/>
<path d="M2790 3015 c-8 -9 -8 -15 -2 -15 12 0 26 19 19 26 -2 2 -10 -2 -17
-11z"/>
<path d="M2616 2889 c-14 -11 -26 -25 -26 -30 0 -5 9 0 20 11 20 20 41 27 100
33 26 3 22 4 -16 5 -38 2 -58 -3 -78 -19z"/>
<path d="M2373 2879 c-22 -23 -64 -29 -98 -14 -18 8 -19 7 -6 -8 26 -32 99
-18 121 23 14 26 10 25 -17 -1z"/>
<path d="M2775 2884 c17 -9 63 -37 103 -62 40 -24 75 -43 77 -40 7 6 -161 109
-187 114 -19 4 -18 2 7 -12z"/>
<path d="M1770 2850 c-8 -5 -11 -12 -7 -16 4 -4 12 -3 18 3 7 7 20 0 44 -23
26 -27 41 -34 73 -34 42 0 83 25 104 63 7 15 1 11 -19 -10 -52 -55 -109 -56
-160 -3 -31 33 -32 34 -53 20z"/>
<path d="M3180 2849 c-32 -13 -78 -56 -96 -91 -22 -42 -17 -47 7 -8 28 46 52
68 94 86 109 45 243 -20 352 -173 42 -59 73 -78 87 -54 3 4 -5 6 -17 4 -19 -4
-31 8 -71 67 -51 74 -124 137 -189 165 -41 17 -129 19 -167 4z"/>
<path d="M3639 2793 c-13 -15 -12 -15 8 -4 40 21 90 -19 142 -114 5 -11 11
-15 11 -9 0 17 -59 102 -87 124 -31 24 -56 25 -74 3z"/>
<path d="M1180 2795 c0 -18 80 -157 124 -214 102 -132 233 -225 386 -272 95
-30 277 -33 350 -6 25 9 34 15 20 12 -202 -40 -330 -23 -506 66 -69 35 -124
79 -197 156 -60 63 -90 106 -139 198 -21 39 -38 66 -38 60z"/>
<path d="M3621 2754 c0 -11 3 -14 6 -6 3 7 2 16 -1 19 -3 4 -6 -2 -5 -13z"/>
<path d="M2570 2709 c100 -94 123 -113 113 -94 -12 22 -45 52 -113 103 l-45
34 45 -43z"/>
<path d="M2380 2576 c-73 -21 -125 -52 -169 -102 -22 -26 -41 -51 -41 -57 0
-6 12 6 28 26 104 138 340 177 515 87 40 -21 63 -25 70 -12 3 4 -5 8 -16 8
-12 1 -51 14 -87 30 -54 24 -81 29 -160 31 -55 1 -114 -3 -140 -11z"/>
<path d="M3520 2549 c0 -3 14 -30 31 -60 16 -30 27 -43 23 -29 -6 23 -54 102
-54 89z"/>
<path d="M3872 2520 c0 -14 2 -19 5 -12 2 6 2 18 0 25 -3 6 -5 1 -5 -13z"/>
<path d="M3036 2477 c3 -10 9 -15 12 -12 3 3 0 11 -7 18 -10 9 -11 8 -5 -6z"/>
<path d="M3840 2450 c-6 -11 -8 -20 -6 -20 3 0 10 9 16 20 6 11 8 20 6 20 -3
0 -10 -9 -16 -20z"/>
<path d="M3066 2423 c28 -50 105 -121 139 -127 l30 -6 -31 14 c-34 16 -84 61
-128 116 l-28 35 18 -32z"/>
<path d="M3785 2413 c-39 -6 -57 -23 -24 -23 14 0 34 7 45 15 10 8 17 14 14
13 -3 0 -18 -3 -35 -5z"/>
<path d="M2100 2166 c0 -11 50 -106 55 -106 3 0 -7 24 -21 53 -28 55 -34 65
-34 53z"/>
<path d="M3636 2065 c-9 -26 -7 -32 5 -12 6 10 9 21 6 23 -2 3 -7 -2 -11 -11z"/>
<path d="M2188 2010 c33 -50 148 -166 202 -204 82 -59 217 -118 333 -145 140
-33 346 -32 482 3 145 38 285 132 357 240 11 17 -6 3 -37 -32 -91 -99 -194
-161 -330 -198 -96 -26 -378 -26 -475 0 -234 62 -369 149 -528 341 l-33 40 29
-45z"/>
<path d="M3616 2013 c-6 -14 -5 -15 5 -6 7 7 10 15 7 18 -3 3 -9 -2 -12 -12z"/>
<path d="M3596 1973 c-6 -14 -5 -15 5 -6 7 7 10 15 7 18 -3 3 -9 -2 -12 -12z"/>
<path d="M306 1501 c23 -35 64 -82 64 -74 0 4 -17 26 -38 49 -20 22 -32 33
-26 25z"/>
<path d="M391 1393 c7 -12 15 -20 18 -17 3 2 -3 12 -13 22 -17 16 -18 16 -5
-5z"/>
<path d="M970 1375 c0 -3 5 -14 12 -24 10 -17 6 -26 -27 -68 -61 -74 -68 -81
-93 -85 -33 -5 -27 -20 20 -46 41 -23 83 -23 60 0 -7 7 -12 17 -12 23 0 16 61
97 68 90 3 -3 9 -35 12 -73 l7 -67 1 65 c0 36 -3 76 -7 89 -6 23 -9 21 -54
-39 -33 -44 -45 -66 -37 -74 23 -23 7 -25 -32 -4 -37 19 -40 23 -21 26 35 5
136 129 130 159 -5 27 -6 26 27 12 22 -10 25 -19 31 -88 4 -42 8 -80 10 -86 6
-18 5 58 -2 113 -5 45 -10 55 -34 67 -28 15 -59 20 -59 10z"/>
<path d="M471 1302 c30 -32 63 -64 74 -71 11 -7 -11 19 -50 58 -84 86 -100 94
-24 13z"/>
<path d="M4650 1299 c0 -5 5 -7 10 -4 6 3 10 8 10 11 0 2 -4 4 -10 4 -5 0 -10
-5 -10 -11z"/>
<path d="M1130 1293 c0 -7 5 -15 10 -18 16 -10 12 -20 -31 -69 -23 -26 -39
-49 -36 -52 3 -3 24 19 47 50 40 53 41 56 26 78 -9 12 -16 17 -16 11z"/>
<path d="M1185 1277 c35 -19 37 -22 18 -25 -14 -2 -48 -36 -89 -88 -37 -46
-71 -84 -75 -84 -4 0 -10 6 -12 13 -3 7 -6 5 -6 -5 -1 -24 31 -23 46 0 6 10
36 48 67 85 41 48 63 66 78 64 37 -4 31 21 -11 42 -54 28 -67 26 -16 -2z"/>
<path d="M590 1185 c13 -14 26 -25 28 -25 3 0 -5 11 -18 25 -13 14 -26 25 -28
25 -3 0 5 -11 18 -25z"/>
<path d="M1164 1166 c-3 -8 -3 -20 1 -26 4 -6 -7 -26 -24 -46 -36 -41 -39 -60
-10 -69 36 -12 90 -11 100 1 7 8 -6 11 -47 10 -36 -1 -59 3 -61 11 -2 6 12 29
31 51 33 37 49 71 26 57 -5 -3 -10 -1 -10 4 0 6 18 11 40 11 22 0 40 -5 40
-10 0 -6 -19 -31 -42 -56 -33 -36 -39 -47 -28 -57 7 -7 10 -7 7 -2 -3 6 12 30
34 55 22 25 38 52 37 60 -4 21 -86 27 -94 6z"/>
<path d="M4489 1143 c-13 -16 -12 -17 4 -4 16 13 21 21 13 21 -2 0 -10 -8 -17
-17z"/>
<path d="M675 1110 c10 -11 20 -20 23 -20 3 0 -3 9 -13 20 -10 11 -20 20 -23
20 -3 0 3 -9 13 -20z"/>
<path d="M1285 1106 c-9 -13 -29 -30 -46 -36 -16 -7 -28 -15 -25 -17 8 -8 65
27 76 47 11 20 44 27 54 11 3 -4 -6 -19 -20 -32 -14 -13 -35 -36 -46 -51 l-19
-28 23 1 c13 0 17 3 10 6 -8 3 1 21 29 55 34 40 40 52 28 59 -24 15 -48 10
-64 -15z"/>
<path d="M4439 1103 c-13 -16 -12 -17 4 -4 9 7 17 15 17 17 0 8 -8 3 -21 -13z"/>
<path d="M710 1086 c0 -2 8 -10 18 -17 15 -13 16 -12 3 4 -13 16 -21 21 -21
13z"/>
<path d="M1403 1073 c41 -5 42 -6 26 -34 -10 -19 -9 -20 11 -9 12 7 33 10 46
7 13 -2 21 0 18 4 -3 5 -16 9 -29 9 -12 0 -25 7 -29 15 -4 10 -18 14 -43 13
l-38 -1 38 -4z"/>
<path d="M1350 1061 c0 -4 5 -12 10 -17 8 -8 0 -24 -25 -53 -42 -51 -43 -57
-10 -65 20 -5 31 1 60 33 35 38 75 59 75 39 0 -6 12 -8 30 -5 21 5 32 2 38
-10 6 -11 11 -12 16 -4 4 6 2 11 -3 11 -6 0 -11 5 -11 11 0 6 8 8 19 4 10 -3
24 1 31 10 8 10 9 15 1 15 -6 0 -11 -4 -11 -9 0 -5 -15 -8 -32 -7 -18 2 -39
-2 -45 -7 -9 -6 -18 -5 -27 2 -19 16 -50 1 -91 -44 -22 -25 -35 -32 -49 -26
-16 6 -14 12 23 55 47 54 49 62 21 69 -11 3 -20 2 -20 -2z"/>
<path d="M3580 1059 c0 -5 5 -7 10 -4 6 3 10 8 10 11 0 2 -4 4 -10 4 -5 0 -10
-5 -10 -11z"/>
<path d="M750 1056 c0 -2 8 -10 18 -17 15 -13 16 -12 3 4 -13 16 -21 21 -21
13z"/>
<path d="M3640 1052 c0 -7 -11 -12 -24 -12 -29 0 -43 -17 -27 -33 9 -9 11 -8
6 6 -6 13 -2 17 18 17 26 0 45 16 33 27 -3 4 -6 1 -6 -5z"/>
<path d="M3554 1013 c-9 -36 7 -57 47 -61 19 -2 40 -11 47 -20 13 -16 14 -15
10 3 -2 13 -12 21 -28 23 -68 7 -73 11 -67 47 7 41 0 47 -9 8z"/>
<path d="M1617 1004 c-16 -21 -16 -25 -3 -30 24 -9 19 -26 -5 -19 -16 5 -30
-2 -60 -31 -45 -44 -48 -54 -16 -55 21 0 21 -1 -3 -10 -16 -7 -32 -7 -47 0
-13 6 -23 7 -23 1 0 -14 38 -22 70 -15 38 8 47 23 21 33 -21 7 -21 8 7 41 22
27 33 32 50 27 12 -4 19 -12 16 -18 -4 -6 -1 -14 5 -18 8 -5 1 -20 -23 -49
-29 -35 -34 -46 -26 -62 8 -14 22 -19 50 -19 33 0 40 -3 40 -20 0 -16 7 -20
38 -20 49 0 70 13 53 34 -10 12 -6 21 23 54 40 43 45 62 19 62 -13 0 -15 -2
-5 -8 9 -6 2 -21 -28 -54 -44 -51 -47 -58 -24 -58 8 0 12 -4 9 -10 -8 -13 -75
-13 -75 1 0 6 4 19 10 29 9 17 7 18 -22 9 -43 -12 -51 -11 -72 4 -17 12 -15
17 24 62 38 44 40 50 24 56 -17 7 -17 8 4 8 12 1 22 5 22 10 0 5 -10 7 -22 4
-18 -4 -20 -3 -8 6 13 9 12 12 -5 25 -16 12 -17 16 -6 30 8 9 12 18 10 20 -2
2 -12 -7 -22 -20z"/>
<path d="M3630 1000 c34 -11 60 -11 35 0 -11 5 -29 8 -40 8 -16 0 -15 -2 5 -8z"/>
<path d="M1214 986 c22 -18 41 -19 71 -5 15 7 13 8 -12 3 -17 -3 -42 0 -55 6
-22 11 -22 10 -4 -4z"/>
<path d="M850 986 c0 -2 7 -7 16 -10 8 -3 12 -2 9 4 -6 10 -25 14 -25 6z"/>
<path d="M3453 978 c-17 -23 -25 -44 -9 -24 9 11 22 23 28 28 9 5 9 8 2 8 -6
0 -16 -6 -21 -12z"/>
<path d="M3522 970 c7 -10 14 -18 15 -16 6 6 -9 36 -18 36 -5 0 -4 -9 3 -20z"/>
<path d="M4260 980 c-9 -6 -10 -10 -3 -10 6 0 15 5 18 10 8 12 4 12 -15 0z"/>
<path d="M3680 958 c0 -35 -36 -78 -66 -78 -32 0 -31 27 1 33 23 4 23 4 -2 3
-21 -1 -28 -6 -28 -21 0 -26 38 -32 70 -11 23 15 45 80 31 93 -3 4 -6 -5 -6
-19z"/>
<path d="M4200 950 c-19 -11 -31 -19 -27 -20 11 0 67 29 67 35 0 7 -1 7 -40
-15z"/>
<path d="M1487 925 c-37 -47 -34 -54 4 -10 18 20 30 38 27 40 -2 2 -16 -11
-31 -30z"/>
<path d="M3454 935 c-3 -14 -3 -32 0 -41 5 -13 9 -14 21 -4 8 7 15 18 14 24 0
7 -2 6 -6 -1 -7 -19 -23 -15 -23 5 0 26 11 34 27 20 11 -8 12 -7 7 6 -9 24
-33 19 -40 -9z"/>
<path d="M931 946 c2 -2 15 -9 29 -15 24 -11 24 -11 6 3 -16 13 -49 24 -35 12z"/>
<path d="M1699 932 c12 -8 10 -15 -7 -38 -11 -16 -29 -38 -41 -48 -26 -24 -27
-36 -2 -36 36 0 80 22 97 48 l17 27 -29 -27 c-26 -24 -84 -48 -84 -35 0 3 16
24 35 47 36 44 40 61 14 68 -12 3 -12 2 0 -6z"/>
<path d="M3520 932 c0 -6 -12 -25 -26 -42 -18 -20 -23 -35 -17 -41 6 -6 10 -5
10 4 0 7 10 28 23 45 13 17 21 35 17 39 -4 3 -7 1 -7 -5z"/>
<path d="M3421 914 c0 -11 3 -14 6 -6 3 7 2 16 -1 19 -3 4 -6 -2 -5 -13z"/>
<path d="M3334 888 c-17 -20 -17 -21 -1 -8 16 12 20 12 28 -1 5 -8 9 -9 9 -4
0 6 -4 16 -8 23 -6 9 -13 7 -28 -10z"/>
<path d="M3535 868 c-13 -28 -14 -30 -1 -13 9 11 20 26 26 33 7 8 7 12 1 12
-6 0 -18 -15 -26 -32z"/>
<path d="M3545 842 c-15 -27 -28 -38 -48 -40 -33 -4 -64 19 -70 52 l-4 21 -2
-21 c-1 -22 43 -74 63 -74 20 0 56 30 72 62 8 16 14 31 12 33 -2 2 -12 -13
-23 -33z"/>
<path d="M3101 836 c-20 -21 -29 -36 -22 -40 6 -4 15 -5 20 -2 5 3 19 -21 31
-54 13 -34 25 -59 27 -57 8 9 -45 122 -56 120 -18 -5 -13 9 16 39 15 15 25 28
22 28 -3 0 -20 -15 -38 -34z"/>
<path d="M3321 850 c0 -8 4 -22 9 -30 12 -18 12 -2 0 25 -6 13 -9 15 -9 5z"/>
<path d="M3371 850 c0 -8 4 -22 9 -30 12 -18 12 -2 0 25 -6 13 -9 15 -9 5z"/>
<path d="M1833 843 c-15 -6 -17 -30 -3 -35 5 -1 -9 -25 -32 -51 -33 -39 -38
-51 -27 -58 26 -16 44 -9 75 28 26 31 37 37 67 36 20 -1 44 -8 53 -18 15 -15
15 -18 -6 -41 -13 -13 -20 -24 -16 -24 9 0 55 52 56 63 0 4 -7 7 -16 7 -11 0
-14 6 -8 22 6 20 5 21 -8 10 -9 -7 -27 -10 -47 -6 -27 6 -36 1 -72 -35 -40
-39 -58 -48 -72 -35 -3 4 14 31 40 60 36 43 42 54 27 54 -18 1 -18 1 0 15 19
15 14 19 -11 8z"/>
<path d="M3140 845 c0 -5 5 -17 10 -25 5 -8 10 -10 10 -5 0 6 -5 17 -10 25 -5
8 -10 11 -10 5z"/>
<path d="M1893 814 c-11 -23 -10 -24 10 -17 12 4 33 7 46 6 18 -1 20 1 10 8
-8 5 -22 6 -31 3 -10 -3 -18 1 -20 10 -2 11 -7 8 -15 -10z"/>
<path d="M3225 810 c-20 -39 -19 -60 4 -60 11 0 22 -6 24 -12 4 -9 6 -8 6 2 0
8 -4 22 -9 30 -9 13 -11 13 -20 0 -14 -21 -13 3 2 35 8 18 18 25 30 22 10 -3
16 -1 12 4 -11 18 -34 8 -49 -21z"/>
<path d="M2044 815 c-4 -8 -4 -22 0 -30 4 -11 -3 -15 -27 -16 l-32 -2 33 -6
c45 -8 43 -17 -31 -98 l-20 -23 24 0 c16 0 20 3 11 8 -9 6 -4 16 19 38 43 40
55 64 38 75 -11 7 -9 9 7 9 21 0 44 17 44 34 0 5 -6 1 -14 -9 -8 -11 -19 -16
-30 -12 -24 9 -20 35 7 40 l22 4 -23 2 c-12 0 -25 -6 -28 -14z"/>
<path d="M3160 795 c0 -5 5 -17 10 -25 5 -8 10 -10 10 -5 0 6 -5 17 -10 25 -5
8 -10 11 -10 5z"/>
<path d="M3390 789 c0 -15 18 -19 23 -6 3 8 -1 14 -9 14 -8 0 -14 -4 -14 -8z"/>
<path d="M3330 754 c0 -11 -5 -25 -12 -32 -9 -9 -9 -12 0 -12 13 0 28 47 18
57 -3 4 -6 -3 -6 -13z"/>
<path d="M3412 745 c-14 -30 -32 -32 -39 -5 -8 29 -20 24 -27 -12 -12 -62 -45
-76 -70 -30 -20 36 -20 20 -1 -18 9 -17 20 -30 25 -30 13 0 41 30 51 58 8 21
12 22 25 11 14 -11 19 -10 35 10 11 13 19 27 19 32 0 16 -6 10 -18 -16z"/>
<path d="M2083 713 c-17 -6 -17 -33 -1 -33 7 0 -7 -19 -30 -43 -23 -23 -42
-46 -42 -50 0 -4 10 -12 23 -16 17 -7 28 -3 52 19 28 27 73 50 97 50 5 0 -9
-21 -31 -46 -23 -26 -41 -51 -41 -55 0 -16 42 -30 71 -24 28 6 42 35 17 35 -6
0 -3 10 8 23 11 12 26 31 33 42 8 11 -5 0 -27 -25 -33 -37 -38 -46 -24 -51 12
-4 10 -7 -10 -12 -27 -7 -58 0 -58 13 0 4 19 28 41 54 23 26 39 50 35 53 -12
12 -87 -19 -112 -46 -17 -19 -32 -27 -45 -24 -27 7 -25 13 26 63 24 24 42 47
39 52 -3 4 -10 5 -16 2 -7 -5 -8 -2 -3 5 4 8 21 11 40 9 19 -2 31 0 29 4 -6 9
-51 10 -71 1z"/>
<path d="M3043 700 c-17 -10 -37 -29 -43 -42 -11 -21 -9 -20 12 4 36 40 65 52
77 31 12 -20 14 -13 5 11 -8 20 -12 20 -51 -4z"/>
<path d="M2915 700 c-3 -6 1 -7 9 -4 18 7 21 14 7 14 -6 0 -13 -4 -16 -10z"/>
<path d="M2141 672 c-9 -16 -6 -18 22 -13 26 4 28 6 9 9 -12 2 -20 8 -17 13 4
5 4 9 1 9 -3 0 -10 -8 -15 -18z"/>
<path d="M2870 670 c-23 -18 -22 -35 3 -35 8 0 13 -26 15 -75 l3 -75 -45 44
c-36 35 -44 50 -40 68 8 30 1 29 -52 -4 -48 -30 -57 -53 -22 -53 14 0 47 -26
95 -76 94 -98 104 -96 101 23 l-2 88 -3 -87 c-2 -49 -7 -88 -11 -88 -4 0 -41
34 -82 75 -41 41 -83 75 -93 75 -25 0 -11 18 33 44 31 18 32 18 26 -1 -4 -14
8 -33 49 -73 l56 -55 -3 90 c-3 79 -5 90 -20 89 -24 -2 -23 4 5 27 29 24 19
24 -13 -1z"/>
<path d="M2924 675 c-3 -8 -4 -20 -2 -27 3 -7 7 -1 10 15 6 29 1 36 -8 12z"/>
<path d="M3237 673 c8 -6 8 -16 -2 -41 -16 -38 -28 -40 -49 -10 -18 25 -21 17
-6 -13 14 -25 36 -24 54 4 21 32 23 59 6 64 -10 3 -11 2 -3 -4z"/>
<path d="M3026 654 c-17 -17 -20 -48 -6 -79 6 -14 7 -8 4 20 -4 30 -2 44 10
54 14 11 17 10 25 -10 5 -13 10 -19 10 -12 1 18 -10 43 -19 43 -5 0 -16 -7
-24 -16z"/>
<path d="M3210 660 c0 -5 5 -10 11 -10 5 0 7 5 4 10 -3 6 -8 10 -11 10 -2 0
-4 -4 -4 -10z"/>
<path d="M3110 634 c0 -5 7 -19 15 -30 9 -12 14 -14 15 -5 0 8 6 11 16 7 9 -3
12 -2 9 5 -4 6 -13 8 -21 5 -7 -3 -18 3 -23 12 -6 9 -11 12 -11 6z"/>
<path d="M1988 623 c7 -3 16 -2 19 1 4 3 -2 6 -13 5 -11 0 -14 -3 -6 -6z"/>
<path d="M2921 604 c0 -11 3 -14 6 -6 3 7 2 16 -1 19 -3 4 -6 -2 -5 -13z"/>
<path d="M2313 603 c9 -2 25 -2 35 0 9 3 1 5 -18 5 -19 0 -27 -2 -17 -5z"/>
<path d="M2975 566 c10 -90 69 -116 105 -46 23 45 24 50 10 50 -5 0 -10 -8
-10 -18 0 -26 -28 -62 -49 -62 -19 0 -38 29 -52 81 l-9 34 5 -39z"/>
<path d="M2314 569 l-19 -23 25 17 c31 21 37 21 44 0 4 -14 4 -14 3 2 -3 28
-30 30 -53 4z"/>
<path d="M2390 586 c0 -2 8 -10 18 -17 15 -13 16 -12 3 4 -13 16 -21 21 -21
13z"/>
<path d="M3141 564 c-7 -17 -17 -24 -26 -20 -8 3 -15 1 -15 -4 0 -6 7 -10 15
-10 15 0 51 47 43 55 -3 3 -10 -7 -17 -21z"/>
<path d="M3057 559 c-4 -14 -10 -18 -19 -14 -11 7 -11 5 0 -6 11 -12 14 -12
22 1 10 15 13 40 6 40 -2 0 -6 -9 -9 -21z"/>
<path d="M2445 550 c3 -5 -3 -10 -14 -10 -11 0 -31 -11 -45 -25 -14 -14 -21
-25 -17 -25 4 0 16 9 25 19 10 11 27 21 39 23 21 3 37 28 17 28 -6 0 -8 -4 -5
-10z"/>
<path d="M2293 530 c2 -8 12 -16 23 -17 13 -2 15 -1 4 4 -8 3 -19 11 -23 17
-6 7 -7 6 -4 -4z"/>
<path d="M2250 520 c0 -5 5 -10 11 -10 5 0 7 5 4 10 -3 6 -8 10 -11 10 -2 0
-4 -4 -4 -10z"/>
<path d="M2226 495 c-3 -8 -1 -15 4 -15 6 0 10 7 10 15 0 8 -2 15 -4 15 -2 0
-6 -7 -10 -15z"/>
<path d="M2280 491 c0 -6 5 -13 12 -17 6 -4 8 -3 4 4 -3 6 2 13 11 15 14 4 13
5 -4 6 -13 0 -23 -3 -23 -8z"/>
<path d="M2151 454 c-2 -38 55 -85 101 -83 17 1 14 3 -12 11 -42 12 -77 42
-83 72 l-4 21 -2 -21z"/>
<path d="M2223 459 c-13 -5 -23 -15 -23 -23 0 -30 70 -60 84 -37 4 5 -3 7 -13
4 -24 -6 -61 13 -61 32 0 20 29 19 53 -2 19 -17 20 -17 8 4 -15 29 -22 32 -48
22z"/>
<path d="M2330 401 c0 -6 -10 -16 -22 -21 -16 -6 -18 -9 -7 -9 19 -1 45 26 35
36 -3 3 -6 1 -6 -6z"/>
</g>
</svg>
